<?xml version="1.0" encoding="utf-8"?>
<!-- Generator: Adobe Illustrator 23.0.3, SVG Export Plug-In . SVG Version: 6.00 Build 0)  -->
<svg version="1.1" id="Layer_1" xmlns="http://www.w3.org/2000/svg" xmlns:xlink="http://www.w3.org/1999/xlink" x="0px" y="0px"
	 viewBox="0 0 92 92" style="enable-background:new 0 0 92 92;" xml:space="preserve">
<style type="text/css">
	.st0{fill:#6B1FFE;}
	.st1{fill:#FFFFFF;}
</style>
<g>
	<g>
		<ellipse transform="matrix(0.1602 -0.9871 0.9871 0.1602 -6.7743 84.0379)" class="st0" cx="46" cy="46" rx="42.8" ry="42.8"/>
		<path class="st1" d="M46,91C21.2,91,1,70.8,1,46S21.2,1,46,1s45,20.2,45,45S70.8,91,46,91z M46,5.4C23.6,5.4,5.4,23.6,5.4,46
			S23.6,86.6,46,86.6S86.6,68.4,86.6,46S68.4,5.4,46,5.4z"/>
	</g>
	<g>
		<path class="st1" d="M47.8,47.2c0-5.2-4.2-9.3-9.3-9.3h-6.7c-5.2,0-9.3,4.2-9.3,9.3v10.9c0,1,0.8,1.7,1.7,1.7h1.5
			c1,0,1.7,0.8,1.7,1.7v6.5c0,1,0.8,1.7,1.7,1.7h11.9c1,0,1.7-0.8,1.7-1.7v-6.5c0-1,0.8-1.7,1.7-1.7h1.5c1,0,1.7-0.8,1.7-1.7
			L47.8,47.2L47.8,47.2z"/>
		<ellipse class="st1" cx="35" cy="29.5" rx="7.6" ry="7.5"/>
		<path class="st1" d="M60.3,35.8l-5.4,6c-1.3,1.4-0.3,3.8,1.7,3.8h5.4h5.4c2,0,3.1-2.4,1.7-3.8l-5.4-6
			C62.8,34.8,61.2,34.8,60.3,35.8z"/>
		<path class="st1" d="M60.3,59.2l-5.4-6c-1.3-1.4-0.3-3.8,1.7-3.8h5.4h5.4c2,0,3.1,2.4,1.7,3.8l-5.4,6
			C62.8,60.1,61.2,60.1,60.3,59.2z"/>
	</g>
</g>
</svg>
