<?xml version="1.0" encoding="utf-8"?>
<!-- Generator: Adobe Illustrator 23.0.3, SVG Export Plug-In . SVG Version: 6.00 Build 0)  -->
<svg version="1.1" id="Layer_1" xmlns="http://www.w3.org/2000/svg" xmlns:xlink="http://www.w3.org/1999/xlink" x="0px" y="0px"
	 viewBox="0 0 92 92" style="enable-background:new 0 0 92 92;" xml:space="preserve">
<style type="text/css">
	.st0{fill:#6B1FFE;}
	.st1{fill:#FFFFFF;}
</style>
<g>
	<g>
		<circle class="st0" cx="46" cy="46" r="43.1"/>
		<path class="st1" d="M46,91.3C21,91.3,0.7,71,0.7,46S21,0.7,46,0.7S91.3,21,91.3,46S71,91.3,46,91.3z M46,5.2
			C23.5,5.2,5.2,23.5,5.2,46S23.5,86.8,46,86.8S86.8,68.5,86.8,46S68.5,5.2,46,5.2z"/>
	</g>
	<g>
		<g>
			<g>
				<path class="st1" d="M72,31.1H60.6c-2.2,0-4.4,0.9-5.9,2.4L31.4,57.1h-7.5c-1.8,0-3.7,0.8-4.9,2c-1.4,1.4-2,3.1-2,5
					c0.1,3.8,3.2,6.9,7.1,6.9h10.4c2.2,0,4.4-0.9,5.9-2.4L63.6,45h8.5c1.8,0,3.7-0.8,4.9-2c1.4-1.4,2-3.1,2-5
					C79,34.1,75.8,31.1,72,31.1z"/>
			</g>
		</g>
		<g>
			<g>
				<path class="st1" d="M43.7,17.4c-2.9,0-5.3,2.4-5.3,5.3s2.4,5.3,5.3,5.3s5.3-2.4,5.3-5.3C49,19.8,46.7,17.4,43.7,17.4z"/>
			</g>
		</g>
		<g>
			<g>
				<path class="st1" d="M43.8,29.4c-3-0.1-5.4,2.4-5.4,5.4v10.7l10.7-10.8C49.1,32,46.8,29.5,43.8,29.4z"/>
			</g>
		</g>
	</g>
</g>
</svg>
