<?xml version="1.0" encoding="utf-8"?>
<!-- Generator: Adobe Illustrator 23.0.3, SVG Export Plug-In . SVG Version: 6.00 Build 0)  -->
<svg version="1.1" id="Layer_1" xmlns="http://www.w3.org/2000/svg" xmlns:xlink="http://www.w3.org/1999/xlink" x="0px" y="0px"
	 viewBox="0 0 92 92" style="enable-background:new 0 0 92 92;" xml:space="preserve">
<style type="text/css">
	.st0{fill:#0168FE;}
</style>
<g>
	<path class="st0" d="M48.2,8.1c11.3,0,22.8,9.8,24.9,23.1c1,6.7-0.2,13.1-3.9,18.8c-6.9,10.8-13.8,21.5-20.7,32.3
		c-1.3,2.1-3.7,2.1-5,0C36.6,71.6,29.7,60.8,22.8,50c-8.5-13.4-3.7-31.5,10.4-38.8C37.2,9.1,41.5,8.1,48.2,8.1z M46,17.4
		c-9.9,0-18.1,8-18.1,17.9c0,10.1,8,18.3,18,18.3c10.1,0,18.2-8,18.2-18C64.1,25.4,56.1,17.4,46,17.4z"/>
</g>
</svg>
