<?xml version="1.0" encoding="utf-8"?>
<!-- Generator: Adobe Illustrator 23.0.3, SVG Export Plug-In . SVG Version: 6.00 Build 0)  -->
<svg version="1.1" id="Layer_1" xmlns="http://www.w3.org/2000/svg" xmlns:xlink="http://www.w3.org/1999/xlink" x="0px" y="0px"
	 viewBox="0 0 92 92" style="enable-background:new 0 0 92 92;" xml:space="preserve">
<style type="text/css">
	.st0{fill:#6B1FFE;}
	.st1{fill:#FFFFFF;}
</style>
<g>
	<g>
		<circle class="st0" cx="46" cy="46" r="43.1"/>
		<path class="st1" d="M46,91.3C21,91.3,0.7,71,0.7,46S21,0.7,46,0.7S91.3,21,91.3,46S71,91.3,46,91.3z M46,5.2
			C23.5,5.2,5.2,23.5,5.2,46S23.5,86.8,46,86.8S86.8,68.5,86.8,46S68.5,5.2,46,5.2z"/>
	</g>
	<path class="st1" d="M63.6,67.1l-2.1-32.5c-0.1-0.9-0.8-1.5-1.6-1.5H32.4c-0.9,0-1.6,0.7-1.6,1.5l-2.1,32.5c-0.2,2.8,2,5.2,4.9,5.2
		h25.3C61.5,72.3,63.7,69.9,63.6,67.1z M38.2,41.8c-1.9,0-3.6-1.5-3.6-3.6c0-1.9,1.5-3.6,3.6-3.6c1.9,0,3.6,1.5,3.6,3.6
		C41.6,40.2,40.1,41.8,38.2,41.8z M53.9,41.8c-1.9,0-3.6-1.5-3.6-3.6c0-1.9,1.5-3.6,3.6-3.6c1.9,0,3.6,1.5,3.6,3.6
		C57.5,40.2,55.9,41.8,53.9,41.8z"/>
	<path class="st1" d="M53.9,40.4c-1.2,0-2.1-1-2.1-2.1V27.6c0-3.2-2.6-5.7-5.7-5.7s-5.7,2.6-5.7,5.7v10.6c0,1.2-1,2.1-2.1,2.1
		s-2.1-1-2.1-2.1V27.6c0-5.5,4.5-10.1,10.1-10.1s10.1,4.5,10.1,10.1v10.6C56.2,39.4,55.1,40.4,53.9,40.4z"/>
</g>
</svg>
