<?xml version="1.0" encoding="utf-8"?>
<!-- Generator: Adobe Illustrator 23.0.3, SVG Export Plug-In . SVG Version: 6.00 Build 0)  -->
<svg version="1.1" id="Layer_1" xmlns="http://www.w3.org/2000/svg" xmlns:xlink="http://www.w3.org/1999/xlink" x="0px" y="0px"
	 viewBox="0 0 92 92" style="enable-background:new 0 0 92 92;" xml:space="preserve">
<style type="text/css">
	.st0{fill:#6B1FFE;}
	.st1{fill:#FFFFFF;}
</style>
<g>
	<g>
		<circle class="st0" cx="46" cy="46" r="43.1"/>
		<path class="st1" d="M46,91.3C21,91.3,0.7,71,0.7,46S21,0.7,46,0.7S91.3,21,91.3,46S71,91.3,46,91.3z M46,5.2
			C23.5,5.2,5.2,23.5,5.2,46S23.5,86.8,46,86.8S86.8,68.5,86.8,46S68.5,5.2,46,5.2z"/>
	</g>
	<g>
		<g>
			<g>
				<path class="st1" d="M36.4,35.7c-0.4-1.1-1.5-1.6-2.6-1.6c-0.6,0-0.6,0-1,0h-8.9c-0.3,0-0.6,0-1,0c-1.3,0-2.2,0.6-2.6,1.6
					l-4.7,14.4c-0.5,1.3,0.2,2.6,1.4,3c1.2,0.5,2.5-0.2,3-1.4l1.3-3.4c0,0,0.1-0.4,0.1,1.2v20c0,1.7,1.5,3.2,3.1,3.2
					c1.6,0,3.1-1.5,3.1-3.2V56.6c0,0,0-0.1,0.1-0.1c0.3,0,0.9,0,1.2,0c0.1,0,0.1,0.1,0.1,0.1v13.1c0,1.7,1.5,3.2,3.1,3.2
					c1.7,0,3.1-1.5,3.1-3.2v-20c0-1.5,0.1-1.1,0.1-1.1l1.3,3.3c0.5,1.3,1.8,1.8,3,1.4c1.2-0.5,1.8-1.8,1.4-3L36.4,35.7z"/>
				<ellipse class="st1" cx="28.5" cy="25.9" rx="6.8" ry="6.7"/>
			</g>
			<g>
				<circle class="st1" cx="62.9" cy="25.8" r="6.8"/>
				<path class="st1" d="M76.2,49.9l-5.7-14c-0.3-0.7-0.6-1.6-1.9-1.6c-0.5,0-1,0-1.5,0h-7.1c-0.6,0-0.9,0-1.6,0
					c-1.4,0-2,0.9-2.4,1.6l-6,13.9c-0.6,1.2-0.1,2.6,1.1,3.2c1.2,0.6,2.5,0.1,3.1-1.1l0.5-1c0,0,0.1-0.3,0.1,0
					c-0.3,1.7-1.3,6.9-1.3,6.9c-0.2,1.1,0.5,1.9,1.5,1.9c0,0,1.9,0,2.6,0c0.2,0,0.2,0.1,0.2,0.1v10.5c0,1.7,1.1,2.6,2.4,2.6
					s2.4-0.9,2.4-2.6V59.9c0,0,0-0.1,0.1-0.1c0.1,0,0.5,0,0.7,0c0.1,0,0.1,0.1,0.1,0.1v10.4c0,1.7,1.1,2.6,2.4,2.6s2.4-0.9,2.4-2.6
					V59.9c0,0,0-0.2,0.2-0.2c0.7,0,2.8,0,2.8,0c1.1,0,1.8-0.9,1.6-1.9c0,0-0.9-5.5-1.2-7.1c-0.1-0.4,0.7,1.1,0.7,1.1
					c0.6,1.2,1.6,1.6,2.8,1.2C76.3,52.5,76.8,51,76.2,49.9z"/>
			</g>
			<g>
				<g>
					<g>
						<path class="st1" d="M47.2,71.7c0,0.7-0.5,1.2-1.2,1.2h-0.5c-0.7,0-1.2-0.5-1.2-1.2V20.9c0-0.7,0.5-1.2,1.2-1.2H46
							c0.7,0,1.2,0.5,1.2,1.2V71.7z"/>
					</g>
				</g>
			</g>
		</g>
	</g>
</g>
</svg>
